<?xml version="1.0" encoding="UTF-8"?><svg xmlns="http://www.w3.org/2000/svg" viewBox="0 0 512 512"><rect width="512" height="512" fill="#fff"/><g id="New_Logo"><path d="M86.82,495.49c-5.3,0-10.46-1.6-14.94-4.62-9.56-6.45-13.41-17.82-10.06-29.66l5.88-20.76c-25.26-12.21-41.38-36.67-41.42-63.42l-.28-203.38c-.02-18.85,7.12-37.74,19.59-51.81,13.23-14.92,30.93-23.17,49.85-23.22l188.95-.53c8.36,0,15.01,5.7,16.17,13.86.66,4.64-.69,9.48-3.6,12.94-2.79,3.31-6.72,5.13-11.07,5.14l-190.63.55c-22.53.06-37.61,22.05-37.57,42.55l.43,205.04c.04,19.89,16.63,34.09,33,37.83,4.08.93,7.49,3.4,9.59,6.94,2.15,3.62,2.71,8.08,1.53,12.25l-5.79,20.47,44.83-35.4c3.2-2.53,6.89-3.82,10.96-3.83l189.13-.69c19.49-.07,34.08-20.63,34.1-38.96l.23-148.8c.01-9.16,6.51-16.07,15.12-16.07,8.6.02,15.08,6.97,15.07,16.16l-.06,147.73c0,17.81-7.16,35.73-19.63,49.16-13.07,14.07-30.27,21.85-48.46,21.9l-181.14.47-53.82,42.6c-4.61,3.65-10.13,5.58-15.96,5.58Z" fill="#00adee"/><path d="M428.32,219.61c-.67-1.99-2.48-3.93-4.21-4.52l-32.04-10.84,31.34-10.47c2.53-.85,4.49-2.73,5.22-5.04l10.26-32.26,10.73,32.39c.6,1.8,2.37,3.8,3.79,4.28l32.6,11.01-31.59,10.88c-2.09.72-3.98,2.69-4.72,4.91l-10.57,31.83-10.8-32.17Z" fill="#00adee"/><path d="M297.9,79.25c-1.19-2.05-2.69-3.51-4.79-4.67l-31.45-10.39,31.57-10.59c2.06-.69,4.04-2.67,4.71-4.71l10.66-32.38,10.67,32.45c1.17,2.13,2.6,3.55,4.7,4.65l31.98,10.43-30.92,10.38c-2.97,1-4.97,2.92-6.1,5.87l-10.26,31.55-10.77-32.58Z" fill="#00adee"/><path d="M359.83,168.49c-1.66-4.94-3.95-9.21-7.01-13.02-4.03-2.41-8.42-4.81-13.25-6.43l-43.82-14.66,45.35-15.5c4.03-1.38,7.89-3.43,12.41-6.61,2.41-3.58,4.81-7.4,6.2-11.53l15.26-45.41,15.08,44.64c3.75,11.09,7.88,15.19,19.24,19.04l45.04,15.29-45.58,15.36c-4.15,1.4-8.09,3.52-12.35,6.67-3.07,4.65-5.39,9.45-7.25,15.04l-14.14,42.37-15.18-45.25Z" fill="#00adee"/><path d="M370.61,155.68c-4.51-9.15-8.17-12.83-17-17.13l-9.1-4.43,9.12-4.4c9.14-4.4,12.61-7.85,16.92-16.76l4.38-9.05,4.44,9.02c4.26,8.65,8.1,12.44,17.12,16.88l8.94,4.4-8.95,4.4c-8.29,4.08-13.24,8.64-16.04,14.8l-5.25,11.56-4.58-9.29Z" fill="#00adee"/><path d="M229.76,381.61l-27.58.05-3.71-21.09c-.29-1.63-1.85-3.81-3.41-4.24-8.31-2.33-15.61-5.34-22.99-9.7-2.06-1.22-4.64-1.15-6.61.22l-17.63,12.3-19.35-19.45,12.63-18.02c1.16-1.66,1.24-4.49.18-6.3-3.89-6.62-6.65-13.24-8.59-20.65-.69-2.63-2.39-4.45-5.09-4.91l-21.38-3.64-.09-26.81,21.91-3.78c1.81-.31,3.83-1.83,4.3-3.58,2.05-7.65,4.67-14.54,8.66-21.27,1.4-2.36,1.44-5.02-.16-7.31l-12.42-17.66,19.46-19.39,16.86,11.83c2.26,1.59,4.91,2.09,7.4.64,7.07-4.1,14.29-7.14,22.27-9.21,2.4-.62,3.82-2.61,4.22-5.02l3.45-20.73,27.68.02,3.63,21.35c.33,1.94,2.31,3.83,4.18,4.33,7.88,2.1,14.83,5.11,21.83,9.14,2.14,1.23,4.82,1.23,6.9-.07l17.82-12.27,19.27,19.43-12.64,17.94c-1.2,1.7-1.3,4.79-.05,6.49,4.27,5.78,7.48,12.26,8.28,19.39.43,3.78,2.39,5.61,5.66,6.15l21.28,3.56-.09,26.9-22.04,3.64c-1.94.32-3.87,2.2-4.35,4.09-2.03,7.98-4.85,14.88-8.98,21.95-.78,1.34-.75,4.09.11,5.33l12.88,18.57-19.3,19.29-17.62-12.19c-2.06-1.42-4.75-1.5-6.9-.23-7.26,4.3-14.46,7.37-22.71,9.61-1.55.42-3.26,2.45-3.54,4.06l-3.64,21.24ZM268.3,305.06c17.78-28.31,8.97-65.21-18.35-83.11-27.42-17.96-64.33-11.19-83.48,15.96-19.96,28.29-12.12,67.3,16.53,86.04,28.42,18.6,66.74,10.67,85.31-18.89Z" fill="#00adee"/><path d="M195.47,317.19c-19.17-9.31-30.16-29.07-27.77-49.86,3.37-29.34,31.18-48.44,59.25-42.31,28.41,6.2,45.27,35.82,36.06,63.35-9.19,27.5-40.61,41.91-67.54,28.82Z" fill="none"/><path d="M216.42,334.97c-12.07,0-23.82-3.52-33.98-10.17-14.21-9.3-23.79-23.63-26.98-40.35-3.17-16.61.45-33.36,10.18-47.15,11.66-16.52,30.67-26.39,50.85-26.39,12.1,0,23.87,3.52,34.02,10.17,13.53,8.86,22.95,22.46,26.53,38.28,3.62,15.98.82,32.41-7.87,46.26-11.55,18.38-31.26,29.35-52.74,29.35ZM216.4,230.83c-21.2,0-39.01,15.9-41.44,36.99-2.05,17.8,7.25,34.47,23.68,42.45,5.67,2.75,11.68,4.15,17.87,4.15h0c17.93,0,33.83-11.54,39.57-28.71,3.73-11.15,2.52-23.44-3.33-33.72-5.86-10.31-15.83-17.66-27.36-20.18-2.96-.65-5.99-.98-9-.98Z" fill="#00adee"/><path d="M197.85,398.77c-5.51-.1-9.87-3.78-10.83-9.25l-3.37-19.15c-5.11-1.94-9.38-3.75-13.57-5.74l-16.13,11.03c-1.96,1.34-4.19,2.04-6.45,2.04-2.97,0-5.82-1.23-8.03-3.45l-25.97-26.17c-3.74-3.77-4.17-9.53-1.03-14.01l11.32-16.17c-1.93-4.18-3.53-8.12-5.06-12.48l-19.8-3.39c-5.18-.89-8.89-10.4-8.89-10.4l-.02-36.89c0-4.86,3.78-9.51,8.44-10.36l20.57-3.75c1.53-4.38,3.08-8.19,4.98-12.25l-11.64-16.73c-2.85-4.1-2.33-10.05,1.19-13.54l26.85-26.69c1.89-1.88,4.44-2.91,7.18-2.91,2.29,0,4.61.73,6.55,2.06l16.13,11.06c4.36-2.09,8.57-3.84,13.6-5.65l3.37-19.72c.86-5.05,5.26-8.58,10.7-8.58l37.29-.02c4.41,0,9.58,2.81,10.5,8.01l3.6,20.32c4.9,1.83,9.15,3.6,13.51,5.64l16.6-11.33c1.76-1.2,3.79-1.83,5.88-1.83,2.89,0,5.64,1.17,7.77,3.29l25.7,25.68c2.62,2.61,6.18,8.16.67,15.94l-10.5,14.83c1.97,4.18,3.61,8.18,5.12,12.45l20.11,3.55c5.09.9,8.93,5.41,8.93,10.5v36.87s-3.76,9.54-9,10.44l-20.05,3.45c-1.44,4.34-2.99,8.2-4.97,12.41l11.34,16.31c3.2,4.61,2.56,10.31-1.65,14.53l-25.69,25.75c-2.06,2.06-4.93,3.24-7.89,3.24-2.11,0-4.12-.61-5.79-1.76l-16.61-11.4-13.56,5.68-3.44,19.9c-.84,4.85-5.26,8.5-10.29,7.65l-37.65.98h0ZM169.54,341.38c2,0,3.95.53,5.63,1.52,6.73,3.97,13.65,6.89,21.78,9.17,3.56,1,6.26,4.86,6.81,8l3.01,17.12,19.52-.03,2.96-17.26c.6-3.51,3.67-6.96,6.98-7.86,7.71-2.09,14.54-4.98,21.5-9.1,1.7-1,3.67-1.54,5.7-1.54,2.31,0,4.5.67,6.33,1.94l14.33,9.92,13.65-13.64-10.59-15.27c-1.89-2.72-2.03-7.51-.31-10.45,3.87-6.63,6.56-13.21,8.47-20.7.97-3.79,4.41-6.99,8.19-7.62l18.03-2.98.06-18.77-17.26-2.89c-4.8-.8-8.08-3.73-9.23-8.24-1.77-6.91-4.47-13.43-8.25-19.9-1.93-3.31-1.72-8.17.49-11.3l10.32-14.65-13.62-13.73-14.6,10.05-.09.05c-1.79,1.12-3.86,1.71-6,1.71s-4.04-.54-5.8-1.55c-6.95-4.01-13.51-6.76-20.65-8.66-3.8-1.01-7.02-4.43-7.65-8.13l-2.95-17.36-19.58-.02-2.78,16.71c-.75,4.48-3.63,7.79-7.72,8.85-7.36,1.91-14.25,4.76-21.05,8.71-1.71.99-3.56,1.5-5.48,1.5-2.4,0-4.84-.82-7.04-2.36l-13.57-9.52-13.76,13.71,10.09,14.35c2.64,3.75,2.77,8.42.37,12.48-3.45,5.83-6.04,12.2-8.15,20.05-1.04,3.89-4.86,6.49-8.09,7.04l-17.92,3.09.06,18.73,17.4,2.96c4.46.76,7.7,3.82,8.89,8.4,1.82,6.97,4.39,13.14,8.07,19.41,2.02,3.43,1.86,8.25-.38,11.45l-10.32,14.73,13.69,13.75,14.34-10c1.78-1.24,3.91-1.9,6.17-1.9Z" fill="#00adee"/></g></svg>